<svg xmlns="http://www.w3.org/2000/svg" xmlns:xlink="http://www.w3.org/1999/xlink" xmlns:s="https://github.com/nturley/netlistsvg" width="627" height="184.5"><style>svg {
  stroke:#000;
  fill:none;
}
text {
  fill:#000;
  stroke:none;
  font-size:10px;
  font-weight: bold;
  font-family: "Courier New", monospace;
}
line {
    stroke-linecap: round;
}
.nodelabel {
  text-anchor: middle;
}
.inputPortLabel {
  text-anchor: end;
}
.splitjoinBody {
  fill:#000;
}</style><g s:type="generic" transform="translate(292,22)" s:width="30" s:height="40" id="cell_$abc$89$auto$blifparse.cc:386:parse_blif$90"><text x="15" y="-4" class="nodelabel cell_$abc$89$auto$blifparse.cc:386:parse_blif$90" s:attribute="ref">sky130_fd_sc_hd__lpflow_inputiso1p_1</text><rect width="30" height="40" s:generic="body" class="cell_$abc$89$auto$blifparse.cc:386:parse_blif$90"/><g transform="translate(0,10)" s:x="0" s:y="10" s:pid="in0" id="port_$abc$89$auto$blifparse.cc:386:parse_blif$90~A"><text x="-3" y="-4" class="inputPortLabel cell_$abc$89$auto$blifparse.cc:386:parse_blif$90">A</text></g><g transform="translate(0,30)" s:x="0" s:y="10" s:pid="in0" id="port_$abc$89$auto$blifparse.cc:386:parse_blif$90~SLEEP"><text x="-3" y="-4" class="inputPortLabel cell_$abc$89$auto$blifparse.cc:386:parse_blif$90">SLEEP</text></g><g transform="translate(30,10)" s:x="30" s:y="10" s:pid="out0" id="port_$abc$89$auto$blifparse.cc:386:parse_blif$90~X"><text x="5" y="-4" style="fill:#000; stroke:none" class="cell_$abc$89$auto$blifparse.cc:386:parse_blif$90">X</text></g></g><g s:type="generic" transform="translate(84,42)" s:width="30" s:height="40" id="cell_ins1"><text x="15" y="-4" class="nodelabel cell_ins1" s:attribute="ref">ha</text><rect width="30" height="40" s:generic="body" class="cell_ins1"/><g transform="translate(0,10)" s:x="0" s:y="10" s:pid="in0" id="port_ins1~a"><text x="-3" y="-4" class="inputPortLabel cell_ins1">a</text></g><g transform="translate(0,30)" s:x="0" s:y="10" s:pid="in0" id="port_ins1~b"><text x="-3" y="-4" class="inputPortLabel cell_ins1">b</text></g><g transform="translate(30,10)" s:x="30" s:y="10" s:pid="out0" id="port_ins1~co"><text x="5" y="-4" style="fill:#000; stroke:none" class="cell_ins1">co</text></g><g transform="translate(30,30)" s:x="30" s:y="10" s:pid="out0" id="port_ins1~sum"><text x="5" y="-4" style="fill:#000; stroke:none" class="cell_ins1">sum</text></g></g><g s:type="generic" transform="translate(176,129.5)" s:width="30" s:height="40" id="cell_ins2"><text x="15" y="-4" class="nodelabel cell_ins2" s:attribute="ref">ha</text><rect width="30" height="40" s:generic="body" class="cell_ins2"/><g transform="translate(0,10)" s:x="0" s:y="10" s:pid="in0" id="port_ins2~a"><text x="-3" y="-4" class="inputPortLabel cell_ins2">a</text></g><g transform="translate(0,30)" s:x="0" s:y="10" s:pid="in0" id="port_ins2~b"><text x="-3" y="-4" class="inputPortLabel cell_ins2">b</text></g><g transform="translate(30,10)" s:x="30" s:y="10" s:pid="out0" id="port_ins2~co"><text x="5" y="-4" style="fill:#000; stroke:none" class="cell_ins2">co</text></g><g transform="translate(30,30)" s:x="30" s:y="10" s:pid="out0" id="port_ins2~sum"><text x="5" y="-4" style="fill:#000; stroke:none" class="cell_ins2">sum</text></g></g><g s:type="inputExt" transform="translate(12,42.5)" s:width="30" s:height="20" id="cell_a"><text x="15" y="-4" class="nodelabel cell_a" s:attribute="ref">a</text><s:alias val="$_inputExt_"/><path d="M0,0 L0,20 L15,20 L30,10 L15,0 Z" class="cell_a"/><g s:x="30" s:y="10" s:pid="Y"/></g><g s:type="inputExt" transform="translate(12,107.5)" s:width="30" s:height="20" id="cell_b"><text x="15" y="-4" class="nodelabel cell_b" s:attribute="ref">b</text><s:alias val="$_inputExt_"/><path d="M0,0 L0,20 L15,20 L30,10 L15,0 Z" class="cell_b"/><g s:x="30" s:y="10" s:pid="Y"/></g><g s:type="inputExt" transform="translate(84,130)" s:width="30" s:height="20" id="cell_cin"><text x="15" y="-4" class="nodelabel cell_cin" s:attribute="ref">cin</text><s:alias val="$_inputExt_"/><path d="M0,0 L0,20 L15,20 L30,10 L15,0 Z" class="cell_cin"/><g s:x="30" s:y="10" s:pid="Y"/></g><g s:type="outputExt" transform="translate(585,150)" s:width="30" s:height="20" id="cell_sum"><text x="15" y="-4" class="nodelabel cell_sum" s:attribute="ref">sum</text><s:alias val="$_outputExt_"/><path d="M30,0 L30,20 L15,20 L0,10 L15,0 Z" class="cell_sum"/><g s:x="0" s:y="10" s:pid="A"/></g><g s:type="outputExt" transform="translate(585,22.5)" s:width="30" s:height="20" id="cell_co"><text x="15" y="-4" class="nodelabel cell_co" s:attribute="ref">co</text><s:alias val="$_outputExt_"/><path d="M30,0 L30,20 L15,20 L0,10 L15,0 Z" class="cell_co"/><g s:x="0" s:y="10" s:pid="A"/></g><line x1="207" x2="236" y1="140" y2="140" class="net_7 width_1" style="stroke-width: 1"/><line x1="236" x2="236" y1="140" y2="32.5" class="net_7 width_1" style="stroke-width: 1"/><line x1="236" x2="292" y1="32.5" y2="32.5" class="net_7 width_1" style="stroke-width: 1"/><line x1="115" x2="292" y1="52.5" y2="52.5" class="net_8 width_1" style="stroke-width: 1"/><line x1="42" x2="84" y1="52.5" y2="52.5" class="net_2 width_1" style="stroke-width: 1"/><line x1="42" x2="52" y1="117.5" y2="117.5" class="net_3 width_1" style="stroke-width: 1"/><line x1="52" x2="52" y1="117.5" y2="72.5" class="net_3 width_1" style="stroke-width: 1"/><line x1="52" x2="84" y1="72.5" y2="72.5" class="net_3 width_1" style="stroke-width: 1"/><line x1="114" x2="176" y1="140" y2="140" class="net_4 width_1" style="stroke-width: 1"/><line x1="115" x2="144" y1="72.5" y2="72.5" class="net_9 width_1" style="stroke-width: 1"/><line x1="144" x2="144" y1="72.5" y2="160" class="net_9 width_1" style="stroke-width: 1"/><line x1="144" x2="176" y1="160" y2="160" class="net_9 width_1" style="stroke-width: 1"/><line x1="207" x2="585" y1="160" y2="160" class="net_5 width_1" style="stroke-width: 1"/><line x1="323" x2="585" y1="32.5" y2="32.5" class="net_6 width_1" style="stroke-width: 1"/></svg>